<mxfile host="65bd71144e">
    <diagram id="Qj0jofDLljBokoM9Vbtn" name="Page-1">
        <mxGraphModel dx="1713" dy="489" grid="1" gridSize="10" guides="1" tooltips="1" connect="1" arrows="1" fold="1" page="1" pageScale="1" pageWidth="850" pageHeight="1100" math="0" shadow="0">
            <root>
                <mxCell id="0"/>
                <mxCell id="1" parent="0"/>
                <mxCell id="2" value="User" style="swimlane;childLayout=stackLayout;horizontal=1;startSize=30;horizontalStack=0;rounded=1;fontSize=18;fontStyle=0;strokeWidth=2;resizeParent=0;resizeLast=1;shadow=0;dashed=0;align=center;movable=1;resizable=1;rotatable=1;deletable=1;editable=1;connectable=1;" vertex="1" parent="1">
                    <mxGeometry x="10" y="110" width="230" height="310" as="geometry"/>
                </mxCell>
                <mxCell id="30" value="Playlist" style="swimlane;childLayout=stackLayout;horizontal=1;startSize=30;horizontalStack=0;rounded=1;fontSize=14;fontStyle=0;strokeWidth=2;resizeParent=0;resizeLast=1;shadow=0;dashed=0;align=center;" vertex="1" parent="2">
                    <mxGeometry y="30" width="230" height="80" as="geometry">
                        <mxRectangle y="30" width="230" height="30" as="alternateBounds"/>
                    </mxGeometry>
                </mxCell>
                <mxCell id="31" value="+Course_ID&#10;+Poseter&#10;" style="align=left;strokeColor=none;fillColor=none;spacingLeft=4;fontSize=12;verticalAlign=top;resizable=0;rotatable=0;part=1;strokeWidth=24;" vertex="1" parent="30">
                    <mxGeometry y="30" width="230" height="50" as="geometry"/>
                </mxCell>
                <mxCell id="33" value="Avtar" style="swimlane;childLayout=stackLayout;horizontal=1;startSize=30;horizontalStack=0;rounded=1;fontSize=14;fontStyle=0;strokeWidth=2;resizeParent=0;resizeLast=1;shadow=0;dashed=0;align=center;" vertex="1" parent="2">
                    <mxGeometry y="110" width="230" height="80" as="geometry">
                        <mxRectangle y="110" width="230" height="30" as="alternateBounds"/>
                    </mxGeometry>
                </mxCell>
                <mxCell id="34" value="+public_id&#10;+URL&#10;" style="align=left;strokeColor=none;fillColor=none;spacingLeft=4;fontSize=12;verticalAlign=top;resizable=0;rotatable=0;part=1;strokeWidth=24;" vertex="1" parent="33">
                    <mxGeometry y="30" width="230" height="50" as="geometry"/>
                </mxCell>
                <mxCell id="3" value="+Name&#10;+Email&#10;+Password&#10;+Role [User,Admin](enum)&#10;+CreatedAt&#10;+ResetPasswordToken&#10;+ResetPasswordExpire" style="align=left;strokeColor=none;fillColor=none;spacingLeft=4;fontSize=12;verticalAlign=top;resizable=0;rotatable=0;part=1;" vertex="1" parent="2">
                    <mxGeometry y="190" width="230" height="120" as="geometry"/>
                </mxCell>
                <mxCell id="4" value="fn&lt;br&gt;[&lt;font style=&quot;font-size: 12px;&quot;&gt;preSave&lt;/font&gt;]" style="shape=mxgraph.electrical.abstract.function;html=1;shadow=0;dashed=0;align=center;strokeWidth=1;fontSize=24" vertex="1" parent="1">
                    <mxGeometry x="500" y="80" width="100" height="90" as="geometry"/>
                </mxCell>
                <mxCell id="5" value="fn&lt;br&gt;[&lt;span style=&quot;font-size: 12px;&quot;&gt;getJWTToken&lt;/span&gt;]" style="shape=mxgraph.electrical.abstract.function;html=1;shadow=0;dashed=0;align=center;strokeWidth=1;fontSize=24" vertex="1" parent="1">
                    <mxGeometry x="500" y="190" width="110" height="100" as="geometry"/>
                </mxCell>
                <mxCell id="6" value="fn&lt;br&gt;[&lt;span style=&quot;font-size: 12px;&quot;&gt;comaparePassword&lt;/span&gt;]" style="shape=mxgraph.electrical.abstract.function;html=1;shadow=0;dashed=0;align=center;strokeWidth=1;fontSize=24" vertex="1" parent="1">
                    <mxGeometry x="475" y="300" width="150" height="100" as="geometry"/>
                </mxCell>
                <mxCell id="7" value="fn&lt;br&gt;[&lt;span style=&quot;font-size: 12px;&quot;&gt;getResetToken&lt;/span&gt;]" style="shape=mxgraph.electrical.abstract.function;html=1;shadow=0;dashed=0;align=center;strokeWidth=1;fontSize=24" vertex="1" parent="1">
                    <mxGeometry x="490" y="420" width="120" height="100" as="geometry"/>
                </mxCell>
                <mxCell id="8" style="edgeStyle=none;html=1;exitX=1;exitY=0;exitDx=0;exitDy=0;fontSize=12;" edge="1" parent="1" source="3" target="4">
                    <mxGeometry relative="1" as="geometry"/>
                </mxCell>
                <mxCell id="9" style="edgeStyle=none;html=1;exitX=1;exitY=0.25;exitDx=0;exitDy=0;entryX=-0.023;entryY=0.423;entryDx=0;entryDy=0;entryPerimeter=0;fontSize=12;" edge="1" parent="1" source="3" target="5">
                    <mxGeometry relative="1" as="geometry"/>
                </mxCell>
                <mxCell id="10" style="edgeStyle=none;html=1;exitX=1;exitY=0.5;exitDx=0;exitDy=0;entryX=0.102;entryY=0.203;entryDx=0;entryDy=0;entryPerimeter=0;fontSize=12;" edge="1" parent="1" source="3" target="6">
                    <mxGeometry relative="1" as="geometry"/>
                </mxCell>
                <mxCell id="11" style="edgeStyle=none;html=1;exitX=1;exitY=1;exitDx=0;exitDy=0;entryX=0.082;entryY=0.186;entryDx=0;entryDy=0;entryPerimeter=0;fontSize=12;" edge="1" parent="1" source="3" target="7">
                    <mxGeometry relative="1" as="geometry"/>
                </mxCell>
                <mxCell id="12" value="&lt;font style=&quot;font-size: 24px;&quot;&gt;UserMethods&lt;/font&gt;" style="text;html=1;strokeColor=none;fillColor=none;align=center;verticalAlign=middle;whiteSpace=wrap;rounded=0;fontSize=12;strokeWidth=24;" vertex="1" parent="1">
                    <mxGeometry x="500" y="20" width="100" height="50" as="geometry"/>
                </mxCell>
                <mxCell id="14" value="Course" style="swimlane;childLayout=stackLayout;horizontal=1;startSize=30;horizontalStack=0;rounded=1;fontSize=14;fontStyle=0;strokeWidth=2;resizeParent=0;resizeLast=1;shadow=0;dashed=0;align=center;" vertex="1" parent="1">
                    <mxGeometry x="30" y="660" width="190" height="200" as="geometry"/>
                </mxCell>
                <mxCell id="15" value="+Title&#10;+Description&#10;+Lectures&#10;+Poster&#10;+Views&#10;+NumberOfVideos&#10;+Category&#10;+CreatedAt&#10;+CreatedBy" style="align=left;strokeColor=none;fillColor=none;spacingLeft=4;fontSize=12;verticalAlign=top;resizable=0;rotatable=0;part=1;" vertex="1" parent="14">
                    <mxGeometry y="30" width="190" height="170" as="geometry"/>
                </mxCell>
                <mxCell id="22" value="Entity" style="swimlane;childLayout=stackLayout;horizontal=1;startSize=30;horizontalStack=0;rounded=1;fontSize=14;fontStyle=0;strokeWidth=2;resizeParent=0;resizeLast=1;shadow=0;dashed=0;align=center;" vertex="1" parent="1">
                    <mxGeometry x="670" y="430" width="160" height="120" as="geometry"/>
                </mxCell>
                <mxCell id="23" value="+Attribute1&#10;+Attribute2&#10;+Attribute3" style="align=left;strokeColor=none;fillColor=none;spacingLeft=4;fontSize=12;verticalAlign=top;resizable=0;rotatable=0;part=1;strokeWidth=24;" vertex="1" parent="22">
                    <mxGeometry y="30" width="160" height="90" as="geometry"/>
                </mxCell>
                <mxCell id="24" value="Avtar" style="swimlane;childLayout=stackLayout;horizontal=1;startSize=30;horizontalStack=0;rounded=1;fontSize=14;fontStyle=0;strokeWidth=2;resizeParent=0;resizeLast=1;shadow=0;dashed=0;align=center;" vertex="1" parent="1">
                    <mxGeometry x="300" y="560" width="320" height="80" as="geometry">
                        <mxRectangle y="30" width="320" height="80" as="alternateBounds"/>
                    </mxGeometry>
                </mxCell>
                <mxCell id="25" value="+public_id&#10;+URL" style="align=left;strokeColor=none;fillColor=none;spacingLeft=4;fontSize=12;verticalAlign=top;resizable=0;rotatable=0;part=1;strokeWidth=24;" vertex="1" parent="24">
                    <mxGeometry y="30" width="320" height="50" as="geometry"/>
                </mxCell>
            </root>
        </mxGraphModel>
    </diagram>
</mxfile>